<svg width="40" height="40" viewBox="0 0 40 40" fill="none" xmlns="http://www.w3.org/2000/svg">
<path d="M20 21.6667C19.4926 21.6607 18.9955 21.8104 18.5758 22.0955C18.156 22.3806 17.8336 22.7875 17.652 23.2613C17.4705 23.7352 17.4385 24.2533 17.5603 24.7459C17.6821 25.2386 17.9519 25.682 18.3334 26.0167V28.3333C18.3334 28.7754 18.5089 29.1993 18.8215 29.5119C19.1341 29.8244 19.558 30 20 30C20.442 30 20.866 29.8244 21.1785 29.5119C21.4911 29.1993 21.6667 28.7754 21.6667 28.3333V26.0167C22.0482 25.682 22.318 25.2386 22.4398 24.7459C22.5616 24.2533 22.5296 23.7352 22.348 23.2613C22.1664 22.7875 21.8441 22.3806 21.4243 22.0955C21.0045 21.8104 20.5074 21.6607 20 21.6667ZM28.3334 15V11.6667C28.3334 9.45653 27.4554 7.33692 25.8926 5.77411C24.3298 4.21131 22.2102 3.33334 20 3.33334C17.7899 3.33334 15.6703 4.21131 14.1075 5.77411C12.5447 7.33692 11.6667 9.45653 11.6667 11.6667V15C10.3406 15 9.06884 15.5268 8.13115 16.4645C7.19347 17.4022 6.66669 18.6739 6.66669 20V31.6667C6.66669 32.9928 7.19347 34.2645 8.13115 35.2022C9.06884 36.1399 10.3406 36.6667 11.6667 36.6667H28.3334C29.6594 36.6667 30.9312 36.1399 31.8689 35.2022C32.8066 34.2645 33.3334 32.9928 33.3334 31.6667V20C33.3334 18.6739 32.8066 17.4022 31.8689 16.4645C30.9312 15.5268 29.6594 15 28.3334 15ZM15 11.6667C15 10.3406 15.5268 9.06882 16.4645 8.13114C17.4022 7.19345 18.6739 6.66667 20 6.66667C21.3261 6.66667 22.5979 7.19345 23.5356 8.13114C24.4732 9.06882 25 10.3406 25 11.6667V15H15V11.6667ZM30 31.6667C30 32.1087 29.8244 32.5326 29.5119 32.8452C29.1993 33.1577 28.7754 33.3333 28.3334 33.3333H11.6667C11.2247 33.3333 10.8007 33.1577 10.4882 32.8452C10.1756 32.5326 10 32.1087 10 31.6667V20C10 19.558 10.1756 19.1341 10.4882 18.8215C10.8007 18.5089 11.2247 18.3333 11.6667 18.3333H28.3334C28.7754 18.3333 29.1993 18.5089 29.5119 18.8215C29.8244 19.1341 30 19.558 30 20V31.6667Z" fill="white"/>
</svg>
