<svg width="105" height="21" viewBox="0 0 105 21" fill="none" xmlns="http://www.w3.org/2000/svg">
<path fill-rule="evenodd" clip-rule="evenodd" d="M3.90758 14.309C3.90758 14.5598 3.95171 14.8545 4.05329 15.1885C4.15154 15.5249 4.35221 15.8436 4.63614 16.1437C4.92673 16.4469 5.33722 16.703 5.88676 16.9113C6.42381 17.1204 7.14072 17.223 8.02831 17.223C8.5179 17.223 8.99667 17.1875 9.47627 17.125C9.95754 17.0579 10.3888 16.9399 10.786 16.7725C11.1707 16.6058 11.4846 16.3713 11.7261 16.0681C11.9717 15.7656 12.0933 15.3737 12.0933 14.8853C12.0933 14.5358 12.0117 14.2434 11.8418 14.0074C11.6586 13.769 11.423 13.5761 11.1082 13.4164C10.786 13.259 10.4138 13.1186 9.98168 13.0028C9.54538 12.8871 9.0766 12.7683 8.56619 12.6487L6.47544 12.1989C5.68859 12.0307 4.91507 11.8487 4.17402 11.645C3.43381 11.4459 2.77769 11.1535 2.20816 10.7801C1.63697 10.4036 1.17985 9.90523 0.825146 9.29188C0.472939 8.68779 0.294754 7.88233 0.294754 6.89634C0.294754 6.5615 0.34055 6.18809 0.415487 5.78922C0.499584 5.38726 0.636969 4.98222 0.837635 4.56946C1.03664 4.15902 1.31391 3.75706 1.66445 3.36668C2.02165 2.97321 2.47294 2.63066 3.0358 2.33131C3.59617 2.04354 4.26228 1.80205 5.04246 1.61921C5.82098 1.43481 6.73356 1.34146 7.78268 1.34146C9.25895 1.34146 10.4929 1.5436 11.4729 1.94478C12.4513 2.34751 13.2231 2.84436 13.806 3.42917C14.3855 4.01552 14.7885 4.64584 15.0258 5.32709C15.2548 6.00293 15.3739 6.62168 15.3739 7.17254H11.4729C11.4338 6.97426 11.373 6.71581 11.2931 6.40412C11.214 6.09628 11.0366 5.79925 10.7652 5.51456C10.4929 5.22756 10.0958 4.98222 9.59034 4.77391C9.07327 4.56483 8.36886 4.45759 7.48293 4.45759C7.10408 4.45759 6.70941 4.49771 6.30558 4.56946C5.89592 4.64584 5.53455 4.7716 5.20233 4.93593C4.87843 5.10258 4.60949 5.32709 4.41049 5.60252C4.19401 5.88026 4.09492 6.21664 4.09492 6.62168C4.09492 6.97426 4.15737 7.26204 4.29559 7.48577C4.42881 7.7126 4.60866 7.8939 4.81099 8.02815C5.02498 8.16162 5.24563 8.26114 5.49126 8.32904C5.73356 8.39384 5.96003 8.45402 6.15404 8.50494L10.9017 9.5866C11.5662 9.7355 12.2107 9.91989 12.8285 10.1375C13.4421 10.3566 13.985 10.6482 14.4521 11.017C14.9276 11.3865 15.3014 11.8487 15.5745 12.4011C15.8634 12.9496 16 13.6309 16 14.434C16 15.3421 15.851 16.1167 15.5554 16.7593C15.2515 17.4035 14.8709 17.9459 14.3855 18.3803C13.9067 18.817 13.3797 19.1641 12.7968 19.4226C12.2223 19.6872 11.6445 19.8801 11.0774 20.0151C10.5071 20.1494 9.98168 20.2342 9.48709 20.279C9 20.3175 8.61948 20.3415 8.32223 20.3415C6.55204 20.3415 5.12073 20.1324 4.02831 19.7142C2.93172 19.2914 2.08243 18.783 1.48626 18.1666C0.895087 17.5578 0.495421 16.8982 0.294754 16.1961C0.0982515 15.4887 0 14.8606 0 14.309H3.90758Z" fill="#231F20"/>
<path fill-rule="evenodd" clip-rule="evenodd" d="M35 13.533C35 14.7293 34.8203 15.7531 34.4647 16.6097C34.1147 17.4671 33.6069 18.1748 32.9398 18.726C32.2789 19.2803 31.4729 19.6895 30.5311 19.949C29.5893 20.2071 28.5305 20.3415 27.3564 20.3415C26.9271 20.3415 26.4554 20.3094 25.9436 20.2514C25.4343 20.1918 24.9179 20.075 24.3944 19.9132C23.8622 19.7422 23.3387 19.5146 22.8372 19.239C22.3255 18.965 21.8656 18.6031 21.4512 18.1458C20.952 17.5907 20.5871 16.9479 20.3728 16.2196C20.1578 15.4882 20.0306 14.6667 20 13.7613V1.34146H23.9658V13.5124C23.9658 14.1476 24.0506 14.6942 24.2209 15.1469C24.3944 15.5997 24.6322 15.9753 24.9351 16.2685C25.2349 16.5616 25.5881 16.7792 25.9954 16.9243C26.4036 17.064 26.8258 17.1388 27.281 17.1388C28.6231 17.1388 29.5893 16.8395 30.1661 16.241C30.7477 15.6432 31.0397 14.7958 31.0397 13.6872V1.34146H35V13.533Z" fill="#231F20"/>
<path fill-rule="evenodd" clip-rule="evenodd" d="M44.1123 20.3415H40V1.34146H54V4.6493H44.1123V9.2185H52.767V12.4392H44.1123V20.3415Z" fill="#231F20"/>
<path fill-rule="evenodd" clip-rule="evenodd" d="M62.1123 20.3415H58V1.34146H72V4.6493H62.1123V9.2185H70.7678V12.4392H62.1123V20.3415Z" fill="#231F20"/>
<path fill-rule="evenodd" clip-rule="evenodd" d="M77.5013 20.3415H73L77.4945 1.34146H82L77.5013 20.3415Z" fill="#231F20"/>
<path fill-rule="evenodd" clip-rule="evenodd" d="M84.1259 0.341461H93.8777V1.09246H89.9822L94.5335 8.72337L99.9254 1.09246H96.4723V0.341461H103.873V1.09246H100.968L95.092 9.52L101.732 19.5913H105V20.3415H95.0062V19.5913H98.1567L93.3544 12.0444L87.9437 19.5913H91.5539V20.3415H84V19.5913H86.8775L92.7738 11.2726L86.4498 1.09246H84.1259V0.341461Z" fill="#231F20"/>
</svg>
